
<svg width="192px" height="192px" viewBox="0 0 192 192" version="1.1" xmlns="http://www.w3.org/2000/svg" xmlns:xlink="http://www.w3.org/1999/xlink">
    <rect fill="#1e787a" x="0" y="0" width="192" height="192"></rect>
    <path d="M81.9157428,91.8419856 L55.6837668,91.8419856 L55.6837668,77.009887 C55.6837668,67.9390168 46,69.0422308 46,69.0422308 L46,123.957769 L55.6837668,123.957769 L55.6837668,100.790276 L81.9157428,100.790276 L81.9157428,115.990113 C81.9157428,125.060983 91.5995096,123.957769 91.5995096,123.957769 L91.5995096,69.0422308 L81.9157428,69.0422308 L81.9157428,91.8419856 Z" fill="#ffffff"></path>
    <path d="M144.090008,92.1043478 L112.559573,54 C112.559573,54 105.133486,57.6521739 107.44653,63.0086957 C110.368269,68.8521739 118.768269,81.5130435 118.768269,96 C118.768269,110.486957 110.368269,123.026087 107.44653,128.991304 C105.133486,134.347826 112.559573,138 112.559573,138 L144.090008,99.8956522 C144.090008,99.8956522 145.794356,97.826087 145.794356,96.1217391 C145.916095,94.173913 144.090008,92.1043478 144.090008,92.1043478 Z" fill="#ffffff"></path>
</svg>